<?xml version="1.0" encoding="utf-8" standalone="no"?>
<!DOCTYPE svg PUBLIC "-//W3C//DTD SVG 1.1//EN"
  "http://www.w3.org/Graphics/SVG/1.1/DTD/svg11.dtd">
<!-- Created with matplotlib (http://matplotlib.org/) -->
<svg height="173pt" version="1.1" viewBox="0 0 345 173" width="345pt" xmlns="http://www.w3.org/2000/svg" xmlns:xlink="http://www.w3.org/1999/xlink">
 <defs>
  <style type="text/css">
*{stroke-linecap:butt;stroke-linejoin:round;stroke-miterlimit:100000;}
  </style>
 </defs>
 <g id="figure_1">
  <g id="patch_1">
   <path d="M 0 173.04 
L 345.6 173.04 
L 345.6 0 
L 0 0 
z
" style="fill:#ffffff;"/>
  </g>
  <g id="axes_1">
   <g id="patch_2">
    <path d="M 43.2 155.736 
L 311.04 155.736 
L 311.04 17.304 
L 43.2 17.304 
z
" style="fill:#ffffff;"/>
   </g>
   <g id="patch_3">
    <path clip-path="url(#pfd775b465f)" d="M 60.418286 155.736 
L 60.418286 154.7472 
L 62.331429 154.7472 
L 62.331429 155.736 
L 64.244571 155.736 
L 64.244571 155.736 
L 66.157714 155.736 
L 66.157714 153.7584 
L 68.070857 153.7584 
L 68.070857 154.7472 
L 69.984 154.7472 
L 69.984 154.7472 
L 71.897143 154.7472 
L 71.897143 152.7696 
L 73.810286 152.7696 
L 73.810286 154.7472 
L 75.723429 154.7472 
L 75.723429 153.7584 
L 77.636571 153.7584 
L 77.636571 154.7472 
L 79.549714 154.7472 
L 79.549714 150.792 
L 81.462857 150.792 
L 81.462857 152.7696 
L 83.376 152.7696 
L 83.376 149.8032 
L 85.289143 149.8032 
L 85.289143 149.8032 
L 87.202286 149.8032 
L 87.202286 149.8032 
L 89.115429 149.8032 
L 89.115429 147.8256 
L 91.028571 147.8256 
L 91.028571 149.8032 
L 92.941714 149.8032 
L 92.941714 152.7696 
L 94.854857 152.7696 
L 94.854857 152.7696 
L 96.768 152.7696 
L 96.768 149.8032 
L 98.681143 149.8032 
L 98.681143 139.9152 
L 100.594286 139.9152 
L 100.594286 146.8368 
L 102.507429 146.8368 
L 102.507429 147.8256 
L 104.420571 147.8256 
L 104.420571 136.9488 
L 106.333714 136.9488 
L 106.333714 149.8032 
L 108.246857 149.8032 
L 108.246857 135.96 
L 110.16 135.96 
L 110.16 135.96 
L 112.073143 135.96 
L 112.073143 132.0048 
L 113.986286 132.0048 
L 113.986286 132.9936 
L 115.899429 132.9936 
L 115.899429 134.9712 
L 117.812571 134.9712 
L 117.812571 127.0608 
L 119.725714 127.0608 
L 119.725714 124.0944 
L 121.638857 124.0944 
L 121.638857 115.1952 
L 123.552 115.1952 
L 123.552 132.9936 
L 125.465143 132.9936 
L 125.465143 130.0272 
L 127.378286 130.0272 
L 127.378286 122.1168 
L 129.291429 122.1168 
L 129.291429 122.1168 
L 131.204571 122.1168 
L 131.204571 130.0272 
L 133.117714 130.0272 
L 133.117714 108.2736 
L 135.030857 108.2736 
L 135.030857 102.3408 
L 136.944 102.3408 
L 136.944 101.352 
L 138.857143 101.352 
L 138.857143 108.2736 
L 140.770286 108.2736 
L 140.770286 105.3072 
L 142.683429 105.3072 
L 142.683429 91.464 
L 144.596571 91.464 
L 144.596571 111.24 
L 146.509714 111.24 
L 146.509714 103.3296 
L 148.422857 103.3296 
L 148.422857 102.3408 
L 150.336 102.3408 
L 150.336 82.5648 
L 152.249143 82.5648 
L 152.249143 113.2176 
L 154.162286 113.2176 
L 154.162286 92.4528 
L 156.075429 92.4528 
L 156.075429 99.3744 
L 157.988571 99.3744 
L 157.988571 88.4976 
L 159.901714 88.4976 
L 159.901714 71.688 
L 161.814857 71.688 
L 161.814857 82.5648 
L 163.728 82.5648 
L 163.728 74.6544 
L 165.641143 74.6544 
L 165.641143 79.5984 
L 167.554286 79.5984 
L 167.554286 62.7888 
L 169.467429 62.7888 
L 169.467429 75.6432 
L 171.380571 75.6432 
L 171.380571 65.7552 
L 173.293714 65.7552 
L 173.293714 62.7888 
L 175.206857 62.7888 
L 175.206857 58.8336 
L 177.12 58.8336 
L 177.12 85.5312 
L 179.033143 85.5312 
L 179.033143 68.7216 
L 180.946286 68.7216 
L 180.946286 80.5872 
L 182.859429 80.5872 
L 182.859429 80.5872 
L 184.772571 80.5872 
L 184.772571 84.5424 
L 186.685714 84.5424 
L 186.685714 65.7552 
L 188.598857 65.7552 
L 188.598857 73.6656 
L 190.512 73.6656 
L 190.512 92.4528 
L 192.425143 92.4528 
L 192.425143 72.6768 
L 194.338286 72.6768 
L 194.338286 81.576 
L 196.251429 81.576 
L 196.251429 70.6992 
L 198.164571 70.6992 
L 198.164571 94.4304 
L 200.077714 94.4304 
L 200.077714 82.5648 
L 201.990857 82.5648 
L 201.990857 101.352 
L 203.904 101.352 
L 203.904 91.464 
L 205.817143 91.464 
L 205.817143 96.408 
L 207.730286 96.408 
L 207.730286 89.4864 
L 209.643429 89.4864 
L 209.643429 106.296 
L 211.556571 106.296 
L 211.556571 112.2288 
L 213.469714 112.2288 
L 213.469714 95.4192 
L 215.382857 95.4192 
L 215.382857 107.2848 
L 217.296 107.2848 
L 217.296 123.1056 
L 219.209143 123.1056 
L 219.209143 110.2512 
L 221.122286 110.2512 
L 221.122286 112.2288 
L 223.035429 112.2288 
L 223.035429 119.1504 
L 224.948571 119.1504 
L 224.948571 120.1392 
L 226.861714 120.1392 
L 226.861714 124.0944 
L 228.774857 124.0944 
L 228.774857 136.9488 
L 230.688 136.9488 
L 230.688 132.9936 
L 232.601143 132.9936 
L 232.601143 136.9488 
L 234.514286 136.9488 
L 234.514286 129.0384 
L 236.427429 129.0384 
L 236.427429 141.8928 
L 238.340571 141.8928 
L 238.340571 137.9376 
L 240.253714 137.9376 
L 240.253714 141.8928 
L 242.166857 141.8928 
L 242.166857 141.8928 
L 244.08 141.8928 
L 244.08 140.904 
L 245.993143 140.904 
L 245.993143 142.8816 
L 247.906286 142.8816 
L 247.906286 146.8368 
L 249.819429 146.8368 
L 249.819429 143.8704 
L 251.732571 143.8704 
L 251.732571 142.8816 
L 253.645714 142.8816 
L 253.645714 147.8256 
L 255.558857 147.8256 
L 255.558857 149.8032 
L 257.472 149.8032 
L 257.472 142.8816 
L 259.385143 142.8816 
L 259.385143 149.8032 
L 261.298286 149.8032 
L 261.298286 147.8256 
L 263.211429 147.8256 
L 263.211429 150.792 
L 265.124571 150.792 
L 265.124571 152.7696 
L 267.037714 152.7696 
L 267.037714 153.7584 
L 268.950857 153.7584 
L 268.950857 150.792 
L 270.864 150.792 
L 270.864 153.7584 
L 272.777143 153.7584 
L 272.777143 152.7696 
L 274.690286 152.7696 
L 274.690286 151.7808 
L 276.603429 151.7808 
L 276.603429 153.7584 
L 278.516571 153.7584 
L 278.516571 152.7696 
L 280.429714 152.7696 
L 280.429714 155.736 
L 282.342857 155.736 
L 282.342857 155.736 
L 284.256 155.736 
L 284.256 154.7472 
L 286.169143 154.7472 
L 286.169143 154.7472 
L 288.082286 154.7472 
L 288.082286 154.7472 
L 289.995429 154.7472 
L 289.995429 155.736 
L 291.908571 155.736 
L 291.908571 154.7472 
L 293.821714 154.7472 
L 293.821714 155.736 
L 295.734857 155.736 
L 295.734857 153.7584 
L 297.648 153.7584 
L 297.648 155.736 
L 299.561143 155.736 
L 299.561143 155.736 
L 301.474286 155.736 
L 301.474286 155.736 
L 303.387429 155.736 
L 303.387429 155.736 
L 305.300571 155.736 
L 305.300571 154.7472 
L 307.213714 154.7472 
L 307.213714 154.7472 
L 309.126857 154.7472 
L 309.126857 154.7472 
L 311.04 154.7472 
L 311.04 155.736 
L 309.126857 155.736 
L 309.126857 155.736 
L 307.213714 155.736 
L 307.213714 155.736 
L 305.300571 155.736 
L 305.300571 155.736 
L 303.387429 155.736 
L 303.387429 155.736 
L 301.474286 155.736 
L 301.474286 155.736 
L 299.561143 155.736 
L 299.561143 155.736 
L 297.648 155.736 
L 297.648 155.736 
L 295.734857 155.736 
L 295.734857 155.736 
L 293.821714 155.736 
L 293.821714 155.736 
L 291.908571 155.736 
L 291.908571 155.736 
L 289.995429 155.736 
L 289.995429 155.736 
L 288.082286 155.736 
L 288.082286 155.736 
L 286.169143 155.736 
L 286.169143 155.736 
L 284.256 155.736 
L 284.256 155.736 
L 282.342857 155.736 
L 282.342857 155.736 
L 280.429714 155.736 
L 280.429714 155.736 
L 278.516571 155.736 
L 278.516571 155.736 
L 276.603429 155.736 
L 276.603429 155.736 
L 274.690286 155.736 
L 274.690286 155.736 
L 272.777143 155.736 
L 272.777143 155.736 
L 270.864 155.736 
L 270.864 155.736 
L 268.950857 155.736 
L 268.950857 155.736 
L 267.037714 155.736 
L 267.037714 155.736 
L 265.124571 155.736 
L 265.124571 155.736 
L 263.211429 155.736 
L 263.211429 155.736 
L 261.298286 155.736 
L 261.298286 155.736 
L 259.385143 155.736 
L 259.385143 155.736 
L 257.472 155.736 
L 257.472 155.736 
L 255.558857 155.736 
L 255.558857 155.736 
L 253.645714 155.736 
L 253.645714 155.736 
L 251.732571 155.736 
L 251.732571 155.736 
L 249.819429 155.736 
L 249.819429 155.736 
L 247.906286 155.736 
L 247.906286 155.736 
L 245.993143 155.736 
L 245.993143 155.736 
L 244.08 155.736 
L 244.08 155.736 
L 242.166857 155.736 
L 242.166857 155.736 
L 240.253714 155.736 
L 240.253714 155.736 
L 238.340571 155.736 
L 238.340571 155.736 
L 236.427429 155.736 
L 236.427429 155.736 
L 234.514286 155.736 
L 234.514286 155.736 
L 232.601143 155.736 
L 232.601143 155.736 
L 230.688 155.736 
L 230.688 155.736 
L 228.774857 155.736 
L 228.774857 155.736 
L 226.861714 155.736 
L 226.861714 155.736 
L 224.948571 155.736 
L 224.948571 155.736 
L 223.035429 155.736 
L 223.035429 155.736 
L 221.122286 155.736 
L 221.122286 155.736 
L 219.209143 155.736 
L 219.209143 155.736 
L 217.296 155.736 
L 217.296 155.736 
L 215.382857 155.736 
L 215.382857 155.736 
L 213.469714 155.736 
L 213.469714 155.736 
L 211.556571 155.736 
L 211.556571 155.736 
L 209.643429 155.736 
L 209.643429 155.736 
L 207.730286 155.736 
L 207.730286 155.736 
L 205.817143 155.736 
L 205.817143 155.736 
L 203.904 155.736 
L 203.904 155.736 
L 201.990857 155.736 
L 201.990857 155.736 
L 200.077714 155.736 
L 200.077714 155.736 
L 198.164571 155.736 
L 198.164571 155.736 
L 196.251429 155.736 
L 196.251429 155.736 
L 194.338286 155.736 
L 194.338286 155.736 
L 192.425143 155.736 
L 192.425143 155.736 
L 190.512 155.736 
L 190.512 155.736 
L 188.598857 155.736 
L 188.598857 155.736 
L 186.685714 155.736 
L 186.685714 155.736 
L 184.772571 155.736 
L 184.772571 155.736 
L 182.859429 155.736 
L 182.859429 155.736 
L 180.946286 155.736 
L 180.946286 155.736 
L 179.033143 155.736 
L 179.033143 155.736 
L 177.12 155.736 
L 177.12 155.736 
L 175.206857 155.736 
L 175.206857 155.736 
L 173.293714 155.736 
L 173.293714 155.736 
L 171.380571 155.736 
L 171.380571 155.736 
L 169.467429 155.736 
L 169.467429 155.736 
L 167.554286 155.736 
L 167.554286 155.736 
L 165.641143 155.736 
L 165.641143 155.736 
L 163.728 155.736 
L 163.728 155.736 
L 161.814857 155.736 
L 161.814857 155.736 
L 159.901714 155.736 
L 159.901714 155.736 
L 157.988571 155.736 
L 157.988571 155.736 
L 156.075429 155.736 
L 156.075429 155.736 
L 154.162286 155.736 
L 154.162286 155.736 
L 152.249143 155.736 
L 152.249143 155.736 
L 150.336 155.736 
L 150.336 155.736 
L 148.422857 155.736 
L 148.422857 155.736 
L 146.509714 155.736 
L 146.509714 155.736 
L 144.596571 155.736 
L 144.596571 155.736 
L 142.683429 155.736 
L 142.683429 155.736 
L 140.770286 155.736 
L 140.770286 155.736 
L 138.857143 155.736 
L 138.857143 155.736 
L 136.944 155.736 
L 136.944 155.736 
L 135.030857 155.736 
L 135.030857 155.736 
L 133.117714 155.736 
L 133.117714 155.736 
L 131.204571 155.736 
L 131.204571 155.736 
L 129.291429 155.736 
L 129.291429 155.736 
L 127.378286 155.736 
L 127.378286 155.736 
L 125.465143 155.736 
L 125.465143 155.736 
L 123.552 155.736 
L 123.552 155.736 
L 121.638857 155.736 
L 121.638857 155.736 
L 119.725714 155.736 
L 119.725714 155.736 
L 117.812571 155.736 
L 117.812571 155.736 
L 115.899429 155.736 
L 115.899429 155.736 
L 113.986286 155.736 
L 113.986286 155.736 
L 112.073143 155.736 
L 112.073143 155.736 
L 110.16 155.736 
L 110.16 155.736 
L 108.246857 155.736 
L 108.246857 155.736 
L 106.333714 155.736 
L 106.333714 155.736 
L 104.420571 155.736 
L 104.420571 155.736 
L 102.507429 155.736 
L 102.507429 155.736 
L 100.594286 155.736 
L 100.594286 155.736 
L 98.681143 155.736 
L 98.681143 155.736 
L 96.768 155.736 
L 96.768 155.736 
L 94.854857 155.736 
L 94.854857 155.736 
L 92.941714 155.736 
L 92.941714 155.736 
L 91.028571 155.736 
L 91.028571 155.736 
L 89.115429 155.736 
L 89.115429 155.736 
L 87.202286 155.736 
L 87.202286 155.736 
L 85.289143 155.736 
L 85.289143 155.736 
L 83.376 155.736 
L 83.376 155.736 
L 81.462857 155.736 
L 81.462857 155.736 
L 79.549714 155.736 
L 79.549714 155.736 
L 77.636571 155.736 
L 77.636571 155.736 
L 75.723429 155.736 
L 75.723429 155.736 
L 73.810286 155.736 
L 73.810286 155.736 
L 71.897143 155.736 
L 71.897143 155.736 
L 69.984 155.736 
L 69.984 155.736 
L 68.070857 155.736 
L 68.070857 155.736 
L 66.157714 155.736 
L 66.157714 155.736 
L 64.244571 155.736 
L 64.244571 155.736 
L 62.331429 155.736 
L 62.331429 155.736 
z
" style="fill:#0000ff;stroke:#000000;stroke-linejoin:miter;"/>
   </g>
   <g id="line2d_1">
    <path clip-path="url(#pfd775b465f)" d="M 43.2 154.30111 
L 54.050233 153.659244 
L 63.15907 152.903419 
L 70.995349 152.036463 
L 77.96093 151.045412 
L 84.189767 149.936313 
L 89.815814 148.710755 
L 94.973023 147.361087 
L 99.728372 145.887906 
L 104.148837 144.28698 
L 108.301395 142.546758 
L 112.186047 140.6801 
L 115.869767 138.666525 
L 119.419535 136.471786 
L 122.768372 134.143199 
L 126.050233 131.588315 
L 129.19814 128.854116 
L 132.27907 125.878546 
L 135.226047 122.724632 
L 138.106047 119.320765 
L 140.986047 115.565919 
L 143.79907 111.524917 
L 146.545116 107.188324 
L 149.291163 102.426361 
L 151.970233 97.330751 
L 154.649302 91.748077 
L 157.261395 85.791592 
L 159.873488 79.280632 
L 162.485581 72.163582 
L 165.097674 64.384023 
L 167.709767 55.880282 
L 170.254884 46.833771 
L 172.8 36.967684 
L 175.211163 26.835475 
L 175.27814 27.129318 
L 177.890233 38.081498 
L 180.502326 48.100988 
L 183.114419 57.267215 
L 185.793488 65.858198 
L 188.472558 73.699655 
L 191.151628 80.856977 
L 193.830698 87.389854 
L 196.509767 93.352765 
L 199.255814 98.92524 
L 202.00186 103.999945 
L 204.814884 108.728748 
L 207.627907 113.025326 
L 210.507907 117.017652 
L 213.387907 120.636799 
L 216.334884 123.990186 
L 219.348837 127.088642 
L 222.429767 129.943615 
L 225.644651 132.619816 
L 228.926512 135.065565 
L 232.342326 137.336721 
L 235.892093 139.43292 
L 239.642791 141.388869 
L 243.594419 143.196304 
L 247.746977 144.850823 
L 252.167442 146.372906 
L 256.922791 147.773536 
L 262.08 149.056735 
L 267.706047 150.221936 
L 273.867907 151.266225 
L 280.699535 152.194494 
L 288.40186 153.012011 
L 297.242791 153.720545 
L 307.557209 154.317807 
L 311.04 154.476508 
L 311.04 154.476508 
" style="fill:none;stroke:#008000;stroke-linecap:square;"/>
   </g>
   <g id="patch_4">
    <path d="M 43.2 17.304 
L 311.04 17.304 
" style="fill:none;stroke:#000000;stroke-linecap:square;stroke-linejoin:miter;"/>
   </g>
   <g id="patch_5">
    <path d="M 311.04 155.736 
L 311.04 17.304 
" style="fill:none;stroke:#000000;stroke-linecap:square;stroke-linejoin:miter;"/>
   </g>
   <g id="patch_6">
    <path d="M 43.2 155.736 
L 311.04 155.736 
" style="fill:none;stroke:#000000;stroke-linecap:square;stroke-linejoin:miter;"/>
   </g>
   <g id="patch_7">
    <path d="M 43.2 155.736 
L 43.2 17.304 
" style="fill:none;stroke:#000000;stroke-linecap:square;stroke-linejoin:miter;"/>
   </g>
   <g id="matplotlib.axis_1">
    <g id="xtick_1">
     <g id="line2d_2">
      <defs>
       <path d="M 0 0 
L 0 -4 
" id="m924981f7c4" style="stroke:#000000;stroke-width:0.5;"/>
      </defs>
      <g>
       <use style="stroke:#000000;stroke-width:0.5;" x="43.2" xlink:href="#m924981f7c4" y="155.736"/>
      </g>
     </g>
     <g id="line2d_3">
      <defs>
       <path d="M 0 0 
L 0 4 
" id="md3b3435047" style="stroke:#000000;stroke-width:0.5;"/>
      </defs>
      <g>
       <use style="stroke:#000000;stroke-width:0.5;" x="43.2" xlink:href="#md3b3435047" y="17.304"/>
      </g>
     </g>
     <g id="text_1">
      <!-- 180 -->
      <defs>
       <path d="M 31.78125 34.625 
Q 24.75 34.625 20.71875 30.859375 
Q 16.703125 27.09375 16.703125 20.515625 
Q 16.703125 13.921875 20.71875 10.15625 
Q 24.75 6.390625 31.78125 6.390625 
Q 38.8125 6.390625 42.859375 10.171875 
Q 46.921875 13.96875 46.921875 20.515625 
Q 46.921875 27.09375 42.890625 30.859375 
Q 38.875 34.625 31.78125 34.625 
M 21.921875 38.8125 
Q 15.578125 40.375 12.03125 44.71875 
Q 8.5 49.078125 8.5 55.328125 
Q 8.5 64.0625 14.71875 69.140625 
Q 20.953125 74.21875 31.78125 74.21875 
Q 42.671875 74.21875 48.875 69.140625 
Q 55.078125 64.0625 55.078125 55.328125 
Q 55.078125 49.078125 51.53125 44.71875 
Q 48 40.375 41.703125 38.8125 
Q 48.828125 37.15625 52.796875 32.3125 
Q 56.78125 27.484375 56.78125 20.515625 
Q 56.78125 9.90625 50.3125 4.234375 
Q 43.84375 -1.421875 31.78125 -1.421875 
Q 19.734375 -1.421875 13.25 4.234375 
Q 6.78125 9.90625 6.78125 20.515625 
Q 6.78125 27.484375 10.78125 32.3125 
Q 14.796875 37.15625 21.921875 38.8125 
M 18.3125 54.390625 
Q 18.3125 48.734375 21.84375 45.5625 
Q 25.390625 42.390625 31.78125 42.390625 
Q 38.140625 42.390625 41.71875 45.5625 
Q 45.3125 48.734375 45.3125 54.390625 
Q 45.3125 60.0625 41.71875 63.234375 
Q 38.140625 66.40625 31.78125 66.40625 
Q 25.390625 66.40625 21.84375 63.234375 
Q 18.3125 60.0625 18.3125 54.390625 
" id="BitstreamVeraSans-Roman-38"/>
       <path d="M 12.40625 8.296875 
L 28.515625 8.296875 
L 28.515625 63.921875 
L 10.984375 60.40625 
L 10.984375 69.390625 
L 28.421875 72.90625 
L 38.28125 72.90625 
L 38.28125 8.296875 
L 54.390625 8.296875 
L 54.390625 0 
L 12.40625 0 
z
" id="BitstreamVeraSans-Roman-31"/>
       <path d="M 31.78125 66.40625 
Q 24.171875 66.40625 20.328125 58.90625 
Q 16.5 51.421875 16.5 36.375 
Q 16.5 21.390625 20.328125 13.890625 
Q 24.171875 6.390625 31.78125 6.390625 
Q 39.453125 6.390625 43.28125 13.890625 
Q 47.125 21.390625 47.125 36.375 
Q 47.125 51.421875 43.28125 58.90625 
Q 39.453125 66.40625 31.78125 66.40625 
M 31.78125 74.21875 
Q 44.046875 74.21875 50.515625 64.515625 
Q 56.984375 54.828125 56.984375 36.375 
Q 56.984375 17.96875 50.515625 8.265625 
Q 44.046875 -1.421875 31.78125 -1.421875 
Q 19.53125 -1.421875 13.0625 8.265625 
Q 6.59375 17.96875 6.59375 36.375 
Q 6.59375 54.828125 13.0625 64.515625 
Q 19.53125 74.21875 31.78125 74.21875 
" id="BitstreamVeraSans-Roman-30"/>
      </defs>
      <g transform="translate(31.7475 168.854125)scale(0.12 -0.12)">
       <use xlink:href="#BitstreamVeraSans-Roman-31"/>
       <use x="63.623046875" xlink:href="#BitstreamVeraSans-Roman-38"/>
       <use x="127.24609375" xlink:href="#BitstreamVeraSans-Roman-30"/>
      </g>
     </g>
    </g>
    <g id="xtick_2">
     <g id="line2d_4">
      <g>
       <use style="stroke:#000000;stroke-width:0.5;" x="81.4628571429" xlink:href="#m924981f7c4" y="155.736"/>
      </g>
     </g>
     <g id="line2d_5">
      <g>
       <use style="stroke:#000000;stroke-width:0.5;" x="81.4628571429" xlink:href="#md3b3435047" y="17.304"/>
      </g>
     </g>
     <g id="text_2">
      <!-- 200 -->
      <defs>
       <path d="M 19.1875 8.296875 
L 53.609375 8.296875 
L 53.609375 0 
L 7.328125 0 
L 7.328125 8.296875 
Q 12.9375 14.109375 22.625 23.890625 
Q 32.328125 33.6875 34.8125 36.53125 
Q 39.546875 41.84375 41.421875 45.53125 
Q 43.3125 49.21875 43.3125 52.78125 
Q 43.3125 58.59375 39.234375 62.25 
Q 35.15625 65.921875 28.609375 65.921875 
Q 23.96875 65.921875 18.8125 64.3125 
Q 13.671875 62.703125 7.8125 59.421875 
L 7.8125 69.390625 
Q 13.765625 71.78125 18.9375 73 
Q 24.125 74.21875 28.421875 74.21875 
Q 39.75 74.21875 46.484375 68.546875 
Q 53.21875 62.890625 53.21875 53.421875 
Q 53.21875 48.921875 51.53125 44.890625 
Q 49.859375 40.875 45.40625 35.40625 
Q 44.1875 33.984375 37.640625 27.21875 
Q 31.109375 20.453125 19.1875 8.296875 
" id="BitstreamVeraSans-Roman-32"/>
      </defs>
      <g transform="translate(70.0103571429 168.854125)scale(0.12 -0.12)">
       <use xlink:href="#BitstreamVeraSans-Roman-32"/>
       <use x="63.623046875" xlink:href="#BitstreamVeraSans-Roman-30"/>
       <use x="127.24609375" xlink:href="#BitstreamVeraSans-Roman-30"/>
      </g>
     </g>
    </g>
    <g id="xtick_3">
     <g id="line2d_6">
      <g>
       <use style="stroke:#000000;stroke-width:0.5;" x="119.725714286" xlink:href="#m924981f7c4" y="155.736"/>
      </g>
     </g>
     <g id="line2d_7">
      <g>
       <use style="stroke:#000000;stroke-width:0.5;" x="119.725714286" xlink:href="#md3b3435047" y="17.304"/>
      </g>
     </g>
     <g id="text_3">
      <!-- 220 -->
      <g transform="translate(108.273214286 168.854125)scale(0.12 -0.12)">
       <use xlink:href="#BitstreamVeraSans-Roman-32"/>
       <use x="63.623046875" xlink:href="#BitstreamVeraSans-Roman-32"/>
       <use x="127.24609375" xlink:href="#BitstreamVeraSans-Roman-30"/>
      </g>
     </g>
    </g>
    <g id="xtick_4">
     <g id="line2d_8">
      <g>
       <use style="stroke:#000000;stroke-width:0.5;" x="157.988571429" xlink:href="#m924981f7c4" y="155.736"/>
      </g>
     </g>
     <g id="line2d_9">
      <g>
       <use style="stroke:#000000;stroke-width:0.5;" x="157.988571429" xlink:href="#md3b3435047" y="17.304"/>
      </g>
     </g>
     <g id="text_4">
      <!-- 240 -->
      <defs>
       <path d="M 37.796875 64.3125 
L 12.890625 25.390625 
L 37.796875 25.390625 
z
M 35.203125 72.90625 
L 47.609375 72.90625 
L 47.609375 25.390625 
L 58.015625 25.390625 
L 58.015625 17.1875 
L 47.609375 17.1875 
L 47.609375 0 
L 37.796875 0 
L 37.796875 17.1875 
L 4.890625 17.1875 
L 4.890625 26.703125 
z
" id="BitstreamVeraSans-Roman-34"/>
      </defs>
      <g transform="translate(146.536071429 168.854125)scale(0.12 -0.12)">
       <use xlink:href="#BitstreamVeraSans-Roman-32"/>
       <use x="63.623046875" xlink:href="#BitstreamVeraSans-Roman-34"/>
       <use x="127.24609375" xlink:href="#BitstreamVeraSans-Roman-30"/>
      </g>
     </g>
    </g>
    <g id="xtick_5">
     <g id="line2d_10">
      <g>
       <use style="stroke:#000000;stroke-width:0.5;" x="196.251428571" xlink:href="#m924981f7c4" y="155.736"/>
      </g>
     </g>
     <g id="line2d_11">
      <g>
       <use style="stroke:#000000;stroke-width:0.5;" x="196.251428571" xlink:href="#md3b3435047" y="17.304"/>
      </g>
     </g>
     <g id="text_5">
      <!-- 260 -->
      <defs>
       <path d="M 33.015625 40.375 
Q 26.375 40.375 22.484375 35.828125 
Q 18.609375 31.296875 18.609375 23.390625 
Q 18.609375 15.53125 22.484375 10.953125 
Q 26.375 6.390625 33.015625 6.390625 
Q 39.65625 6.390625 43.53125 10.953125 
Q 47.40625 15.53125 47.40625 23.390625 
Q 47.40625 31.296875 43.53125 35.828125 
Q 39.65625 40.375 33.015625 40.375 
M 52.59375 71.296875 
L 52.59375 62.3125 
Q 48.875 64.0625 45.09375 64.984375 
Q 41.3125 65.921875 37.59375 65.921875 
Q 27.828125 65.921875 22.671875 59.328125 
Q 17.53125 52.734375 16.796875 39.40625 
Q 19.671875 43.65625 24.015625 45.921875 
Q 28.375 48.1875 33.59375 48.1875 
Q 44.578125 48.1875 50.953125 41.515625 
Q 57.328125 34.859375 57.328125 23.390625 
Q 57.328125 12.15625 50.6875 5.359375 
Q 44.046875 -1.421875 33.015625 -1.421875 
Q 20.359375 -1.421875 13.671875 8.265625 
Q 6.984375 17.96875 6.984375 36.375 
Q 6.984375 53.65625 15.1875 63.9375 
Q 23.390625 74.21875 37.203125 74.21875 
Q 40.921875 74.21875 44.703125 73.484375 
Q 48.484375 72.75 52.59375 71.296875 
" id="BitstreamVeraSans-Roman-36"/>
      </defs>
      <g transform="translate(184.798928571 168.854125)scale(0.12 -0.12)">
       <use xlink:href="#BitstreamVeraSans-Roman-32"/>
       <use x="63.623046875" xlink:href="#BitstreamVeraSans-Roman-36"/>
       <use x="127.24609375" xlink:href="#BitstreamVeraSans-Roman-30"/>
      </g>
     </g>
    </g>
    <g id="xtick_6">
     <g id="line2d_12">
      <g>
       <use style="stroke:#000000;stroke-width:0.5;" x="234.514285714" xlink:href="#m924981f7c4" y="155.736"/>
      </g>
     </g>
     <g id="line2d_13">
      <g>
       <use style="stroke:#000000;stroke-width:0.5;" x="234.514285714" xlink:href="#md3b3435047" y="17.304"/>
      </g>
     </g>
     <g id="text_6">
      <!-- 280 -->
      <g transform="translate(223.061785714 168.854125)scale(0.12 -0.12)">
       <use xlink:href="#BitstreamVeraSans-Roman-32"/>
       <use x="63.623046875" xlink:href="#BitstreamVeraSans-Roman-38"/>
       <use x="127.24609375" xlink:href="#BitstreamVeraSans-Roman-30"/>
      </g>
     </g>
    </g>
    <g id="xtick_7">
     <g id="line2d_14">
      <g>
       <use style="stroke:#000000;stroke-width:0.5;" x="272.777142857" xlink:href="#m924981f7c4" y="155.736"/>
      </g>
     </g>
     <g id="line2d_15">
      <g>
       <use style="stroke:#000000;stroke-width:0.5;" x="272.777142857" xlink:href="#md3b3435047" y="17.304"/>
      </g>
     </g>
     <g id="text_7">
      <!-- 300 -->
      <defs>
       <path d="M 40.578125 39.3125 
Q 47.65625 37.796875 51.625 33 
Q 55.609375 28.21875 55.609375 21.1875 
Q 55.609375 10.40625 48.1875 4.484375 
Q 40.765625 -1.421875 27.09375 -1.421875 
Q 22.515625 -1.421875 17.65625 -0.515625 
Q 12.796875 0.390625 7.625 2.203125 
L 7.625 11.71875 
Q 11.71875 9.328125 16.59375 8.109375 
Q 21.484375 6.890625 26.8125 6.890625 
Q 36.078125 6.890625 40.9375 10.546875 
Q 45.796875 14.203125 45.796875 21.1875 
Q 45.796875 27.640625 41.28125 31.265625 
Q 36.765625 34.90625 28.71875 34.90625 
L 20.21875 34.90625 
L 20.21875 43.015625 
L 29.109375 43.015625 
Q 36.375 43.015625 40.234375 45.921875 
Q 44.09375 48.828125 44.09375 54.296875 
Q 44.09375 59.90625 40.109375 62.90625 
Q 36.140625 65.921875 28.71875 65.921875 
Q 24.65625 65.921875 20.015625 65.03125 
Q 15.375 64.15625 9.8125 62.3125 
L 9.8125 71.09375 
Q 15.4375 72.65625 20.34375 73.4375 
Q 25.25 74.21875 29.59375 74.21875 
Q 40.828125 74.21875 47.359375 69.109375 
Q 53.90625 64.015625 53.90625 55.328125 
Q 53.90625 49.265625 50.4375 45.09375 
Q 46.96875 40.921875 40.578125 39.3125 
" id="BitstreamVeraSans-Roman-33"/>
      </defs>
      <g transform="translate(261.324642857 168.854125)scale(0.12 -0.12)">
       <use xlink:href="#BitstreamVeraSans-Roman-33"/>
       <use x="63.623046875" xlink:href="#BitstreamVeraSans-Roman-30"/>
       <use x="127.24609375" xlink:href="#BitstreamVeraSans-Roman-30"/>
      </g>
     </g>
    </g>
    <g id="xtick_8">
     <g id="line2d_16">
      <g>
       <use style="stroke:#000000;stroke-width:0.5;" x="311.04" xlink:href="#m924981f7c4" y="155.736"/>
      </g>
     </g>
     <g id="line2d_17">
      <g>
       <use style="stroke:#000000;stroke-width:0.5;" x="311.04" xlink:href="#md3b3435047" y="17.304"/>
      </g>
     </g>
     <g id="text_8">
      <!-- 320 -->
      <g transform="translate(299.5875 168.854125)scale(0.12 -0.12)">
       <use xlink:href="#BitstreamVeraSans-Roman-33"/>
       <use x="63.623046875" xlink:href="#BitstreamVeraSans-Roman-32"/>
       <use x="127.24609375" xlink:href="#BitstreamVeraSans-Roman-30"/>
      </g>
     </g>
    </g>
    <g id="text_9">
     <!-- Value / 2 -->
     <defs>
      <path id="BitstreamVeraSans-Roman-20"/>
      <path d="M 9.421875 75.984375 
L 18.40625 75.984375 
L 18.40625 0 
L 9.421875 0 
z
" id="BitstreamVeraSans-Roman-6c"/>
      <path d="M 28.609375 0 
L 0.78125 72.90625 
L 11.078125 72.90625 
L 34.1875 11.53125 
L 57.328125 72.90625 
L 67.578125 72.90625 
L 39.796875 0 
z
" id="BitstreamVeraSans-Roman-56"/>
      <path d="M 25.390625 72.90625 
L 33.6875 72.90625 
L 8.296875 -9.28125 
L 0 -9.28125 
z
" id="BitstreamVeraSans-Roman-2f"/>
      <path d="M 56.203125 29.59375 
L 56.203125 25.203125 
L 14.890625 25.203125 
Q 15.484375 15.921875 20.484375 11.0625 
Q 25.484375 6.203125 34.421875 6.203125 
Q 39.59375 6.203125 44.453125 7.46875 
Q 49.3125 8.734375 54.109375 11.28125 
L 54.109375 2.78125 
Q 49.265625 0.734375 44.1875 -0.34375 
Q 39.109375 -1.421875 33.890625 -1.421875 
Q 20.796875 -1.421875 13.15625 6.1875 
Q 5.515625 13.8125 5.515625 26.8125 
Q 5.515625 40.234375 12.765625 48.109375 
Q 20.015625 56 32.328125 56 
Q 43.359375 56 49.78125 48.890625 
Q 56.203125 41.796875 56.203125 29.59375 
M 47.21875 32.234375 
Q 47.125 39.59375 43.09375 43.984375 
Q 39.0625 48.390625 32.421875 48.390625 
Q 24.90625 48.390625 20.390625 44.140625 
Q 15.875 39.890625 15.1875 32.171875 
z
" id="BitstreamVeraSans-Roman-65"/>
      <path d="M 8.5 21.578125 
L 8.5 54.6875 
L 17.484375 54.6875 
L 17.484375 21.921875 
Q 17.484375 14.15625 20.5 10.265625 
Q 23.53125 6.390625 29.59375 6.390625 
Q 36.859375 6.390625 41.078125 11.03125 
Q 45.3125 15.671875 45.3125 23.6875 
L 45.3125 54.6875 
L 54.296875 54.6875 
L 54.296875 0 
L 45.3125 0 
L 45.3125 8.40625 
Q 42.046875 3.421875 37.71875 1 
Q 33.40625 -1.421875 27.6875 -1.421875 
Q 18.265625 -1.421875 13.375 4.4375 
Q 8.5 10.296875 8.5 21.578125 
" id="BitstreamVeraSans-Roman-75"/>
      <path d="M 34.28125 27.484375 
Q 23.390625 27.484375 19.1875 25 
Q 14.984375 22.515625 14.984375 16.5 
Q 14.984375 11.71875 18.140625 8.90625 
Q 21.296875 6.109375 26.703125 6.109375 
Q 34.1875 6.109375 38.703125 11.40625 
Q 43.21875 16.703125 43.21875 25.484375 
L 43.21875 27.484375 
z
M 52.203125 31.203125 
L 52.203125 0 
L 43.21875 0 
L 43.21875 8.296875 
Q 40.140625 3.328125 35.546875 0.953125 
Q 30.953125 -1.421875 24.3125 -1.421875 
Q 15.921875 -1.421875 10.953125 3.296875 
Q 6 8.015625 6 15.921875 
Q 6 25.140625 12.171875 29.828125 
Q 18.359375 34.515625 30.609375 34.515625 
L 43.21875 34.515625 
L 43.21875 35.40625 
Q 43.21875 41.609375 39.140625 45 
Q 35.0625 48.390625 27.6875 48.390625 
Q 23 48.390625 18.546875 47.265625 
Q 14.109375 46.140625 10.015625 43.890625 
L 10.015625 52.203125 
Q 14.9375 54.109375 19.578125 55.046875 
Q 24.21875 56 28.609375 56 
Q 40.484375 56 46.34375 49.84375 
Q 52.203125 43.703125 52.203125 31.203125 
" id="BitstreamVeraSans-Roman-61"/>
     </defs>
     <g transform="translate(150.5315625 185.467875)scale(0.12 -0.12)">
      <use xlink:href="#BitstreamVeraSans-Roman-56"/>
      <use x="68.298828125" xlink:href="#BitstreamVeraSans-Roman-61"/>
      <use x="129.578125" xlink:href="#BitstreamVeraSans-Roman-6c"/>
      <use x="157.361328125" xlink:href="#BitstreamVeraSans-Roman-75"/>
      <use x="220.740234375" xlink:href="#BitstreamVeraSans-Roman-65"/>
      <use x="282.263671875" xlink:href="#BitstreamVeraSans-Roman-20"/>
      <use x="314.05078125" xlink:href="#BitstreamVeraSans-Roman-2f"/>
      <use x="347.7421875" xlink:href="#BitstreamVeraSans-Roman-20"/>
      <use x="379.529296875" xlink:href="#BitstreamVeraSans-Roman-32"/>
     </g>
    </g>
   </g>
   <g id="matplotlib.axis_2">
    <g id="ytick_1">
     <g id="line2d_18">
      <defs>
       <path d="M 0 0 
L 4 0 
" id="me51e586788" style="stroke:#000000;stroke-width:0.5;"/>
      </defs>
      <g>
       <use style="stroke:#000000;stroke-width:0.5;" x="43.2" xlink:href="#me51e586788" y="155.736"/>
      </g>
     </g>
     <g id="line2d_19">
      <defs>
       <path d="M 0 0 
L -4 0 
" id="m129be4f81a" style="stroke:#000000;stroke-width:0.5;"/>
      </defs>
      <g>
       <use style="stroke:#000000;stroke-width:0.5;" x="311.04" xlink:href="#m129be4f81a" y="155.736"/>
      </g>
     </g>
     <g id="text_10">
      <!-- 0.000 -->
      <defs>
       <path d="M 10.6875 12.40625 
L 21 12.40625 
L 21 0 
L 10.6875 0 
z
" id="BitstreamVeraSans-Roman-2e"/>
      </defs>
      <g transform="translate(4.84625 159.04725)scale(0.12 -0.12)">
       <use xlink:href="#BitstreamVeraSans-Roman-30"/>
       <use x="63.623046875" xlink:href="#BitstreamVeraSans-Roman-2e"/>
       <use x="95.41015625" xlink:href="#BitstreamVeraSans-Roman-30"/>
       <use x="159.033203125" xlink:href="#BitstreamVeraSans-Roman-30"/>
       <use x="222.65625" xlink:href="#BitstreamVeraSans-Roman-30"/>
      </g>
     </g>
    </g>
    <g id="ytick_2">
     <g id="line2d_20">
      <g>
       <use style="stroke:#000000;stroke-width:0.5;" x="43.2" xlink:href="#me51e586788" y="135.96"/>
      </g>
     </g>
     <g id="line2d_21">
      <g>
       <use style="stroke:#000000;stroke-width:0.5;" x="311.04" xlink:href="#m129be4f81a" y="135.96"/>
      </g>
     </g>
     <g id="text_11">
      <!-- 0.005 -->
      <defs>
       <path d="M 10.796875 72.90625 
L 49.515625 72.90625 
L 49.515625 64.59375 
L 19.828125 64.59375 
L 19.828125 46.734375 
Q 21.96875 47.46875 24.109375 47.828125 
Q 26.265625 48.1875 28.421875 48.1875 
Q 40.625 48.1875 47.75 41.5 
Q 54.890625 34.8125 54.890625 23.390625 
Q 54.890625 11.625 47.5625 5.09375 
Q 40.234375 -1.421875 26.90625 -1.421875 
Q 22.3125 -1.421875 17.546875 -0.640625 
Q 12.796875 0.140625 7.71875 1.703125 
L 7.71875 11.625 
Q 12.109375 9.234375 16.796875 8.0625 
Q 21.484375 6.890625 26.703125 6.890625 
Q 35.15625 6.890625 40.078125 11.328125 
Q 45.015625 15.765625 45.015625 23.390625 
Q 45.015625 31 40.078125 35.4375 
Q 35.15625 39.890625 26.703125 39.890625 
Q 22.75 39.890625 18.8125 39.015625 
Q 14.890625 38.140625 10.796875 36.28125 
z
" id="BitstreamVeraSans-Roman-35"/>
      </defs>
      <g transform="translate(4.84625 139.27125)scale(0.12 -0.12)">
       <use xlink:href="#BitstreamVeraSans-Roman-30"/>
       <use x="63.623046875" xlink:href="#BitstreamVeraSans-Roman-2e"/>
       <use x="95.41015625" xlink:href="#BitstreamVeraSans-Roman-30"/>
       <use x="159.033203125" xlink:href="#BitstreamVeraSans-Roman-30"/>
       <use x="222.65625" xlink:href="#BitstreamVeraSans-Roman-35"/>
      </g>
     </g>
    </g>
    <g id="ytick_3">
     <g id="line2d_22">
      <g>
       <use style="stroke:#000000;stroke-width:0.5;" x="43.2" xlink:href="#me51e586788" y="116.184"/>
      </g>
     </g>
     <g id="line2d_23">
      <g>
       <use style="stroke:#000000;stroke-width:0.5;" x="311.04" xlink:href="#m129be4f81a" y="116.184"/>
      </g>
     </g>
     <g id="text_12">
      <!-- 0.010 -->
      <g transform="translate(4.84625 119.49525)scale(0.12 -0.12)">
       <use xlink:href="#BitstreamVeraSans-Roman-30"/>
       <use x="63.623046875" xlink:href="#BitstreamVeraSans-Roman-2e"/>
       <use x="95.41015625" xlink:href="#BitstreamVeraSans-Roman-30"/>
       <use x="159.033203125" xlink:href="#BitstreamVeraSans-Roman-31"/>
       <use x="222.65625" xlink:href="#BitstreamVeraSans-Roman-30"/>
      </g>
     </g>
    </g>
    <g id="ytick_4">
     <g id="line2d_24">
      <g>
       <use style="stroke:#000000;stroke-width:0.5;" x="43.2" xlink:href="#me51e586788" y="96.408"/>
      </g>
     </g>
     <g id="line2d_25">
      <g>
       <use style="stroke:#000000;stroke-width:0.5;" x="311.04" xlink:href="#m129be4f81a" y="96.408"/>
      </g>
     </g>
     <g id="text_13">
      <!-- 0.015 -->
      <g transform="translate(4.84625 99.71925)scale(0.12 -0.12)">
       <use xlink:href="#BitstreamVeraSans-Roman-30"/>
       <use x="63.623046875" xlink:href="#BitstreamVeraSans-Roman-2e"/>
       <use x="95.41015625" xlink:href="#BitstreamVeraSans-Roman-30"/>
       <use x="159.033203125" xlink:href="#BitstreamVeraSans-Roman-31"/>
       <use x="222.65625" xlink:href="#BitstreamVeraSans-Roman-35"/>
      </g>
     </g>
    </g>
    <g id="ytick_5">
     <g id="line2d_26">
      <g>
       <use style="stroke:#000000;stroke-width:0.5;" x="43.2" xlink:href="#me51e586788" y="76.632"/>
      </g>
     </g>
     <g id="line2d_27">
      <g>
       <use style="stroke:#000000;stroke-width:0.5;" x="311.04" xlink:href="#m129be4f81a" y="76.632"/>
      </g>
     </g>
     <g id="text_14">
      <!-- 0.020 -->
      <g transform="translate(4.84625 79.94325)scale(0.12 -0.12)">
       <use xlink:href="#BitstreamVeraSans-Roman-30"/>
       <use x="63.623046875" xlink:href="#BitstreamVeraSans-Roman-2e"/>
       <use x="95.41015625" xlink:href="#BitstreamVeraSans-Roman-30"/>
       <use x="159.033203125" xlink:href="#BitstreamVeraSans-Roman-32"/>
       <use x="222.65625" xlink:href="#BitstreamVeraSans-Roman-30"/>
      </g>
     </g>
    </g>
    <g id="ytick_6">
     <g id="line2d_28">
      <g>
       <use style="stroke:#000000;stroke-width:0.5;" x="43.2" xlink:href="#me51e586788" y="56.856"/>
      </g>
     </g>
     <g id="line2d_29">
      <g>
       <use style="stroke:#000000;stroke-width:0.5;" x="311.04" xlink:href="#m129be4f81a" y="56.856"/>
      </g>
     </g>
     <g id="text_15">
      <!-- 0.025 -->
      <g transform="translate(4.84625 60.16725)scale(0.12 -0.12)">
       <use xlink:href="#BitstreamVeraSans-Roman-30"/>
       <use x="63.623046875" xlink:href="#BitstreamVeraSans-Roman-2e"/>
       <use x="95.41015625" xlink:href="#BitstreamVeraSans-Roman-30"/>
       <use x="159.033203125" xlink:href="#BitstreamVeraSans-Roman-32"/>
       <use x="222.65625" xlink:href="#BitstreamVeraSans-Roman-35"/>
      </g>
     </g>
    </g>
    <g id="ytick_7">
     <g id="line2d_30">
      <g>
       <use style="stroke:#000000;stroke-width:0.5;" x="43.2" xlink:href="#me51e586788" y="37.08"/>
      </g>
     </g>
     <g id="line2d_31">
      <g>
       <use style="stroke:#000000;stroke-width:0.5;" x="311.04" xlink:href="#m129be4f81a" y="37.08"/>
      </g>
     </g>
     <g id="text_16">
      <!-- 0.030 -->
      <g transform="translate(4.84625 40.39125)scale(0.12 -0.12)">
       <use xlink:href="#BitstreamVeraSans-Roman-30"/>
       <use x="63.623046875" xlink:href="#BitstreamVeraSans-Roman-2e"/>
       <use x="95.41015625" xlink:href="#BitstreamVeraSans-Roman-30"/>
       <use x="159.033203125" xlink:href="#BitstreamVeraSans-Roman-33"/>
       <use x="222.65625" xlink:href="#BitstreamVeraSans-Roman-30"/>
      </g>
     </g>
    </g>
    <g id="ytick_8">
     <g id="line2d_32">
      <g>
       <use style="stroke:#000000;stroke-width:0.5;" x="43.2" xlink:href="#me51e586788" y="17.304"/>
      </g>
     </g>
     <g id="line2d_33">
      <g>
       <use style="stroke:#000000;stroke-width:0.5;" x="311.04" xlink:href="#m129be4f81a" y="17.304"/>
      </g>
     </g>
     <g id="text_17">
      <!-- 0.035 -->
      <g transform="translate(4.84625 20.61525)scale(0.12 -0.12)">
       <use xlink:href="#BitstreamVeraSans-Roman-30"/>
       <use x="63.623046875" xlink:href="#BitstreamVeraSans-Roman-2e"/>
       <use x="95.41015625" xlink:href="#BitstreamVeraSans-Roman-30"/>
       <use x="159.033203125" xlink:href="#BitstreamVeraSans-Roman-33"/>
       <use x="222.65625" xlink:href="#BitstreamVeraSans-Roman-35"/>
      </g>
     </g>
    </g>
   </g>
   <g id="text_18">
    <!-- Corrected results -->
    <defs>
     <path d="M 30.609375 48.390625 
Q 23.390625 48.390625 19.1875 42.75 
Q 14.984375 37.109375 14.984375 27.296875 
Q 14.984375 17.484375 19.15625 11.84375 
Q 23.34375 6.203125 30.609375 6.203125 
Q 37.796875 6.203125 41.984375 11.859375 
Q 46.1875 17.53125 46.1875 27.296875 
Q 46.1875 37.015625 41.984375 42.703125 
Q 37.796875 48.390625 30.609375 48.390625 
M 30.609375 56 
Q 42.328125 56 49.015625 48.375 
Q 55.71875 40.765625 55.71875 27.296875 
Q 55.71875 13.875 49.015625 6.21875 
Q 42.328125 -1.421875 30.609375 -1.421875 
Q 18.84375 -1.421875 12.171875 6.21875 
Q 5.515625 13.875 5.515625 27.296875 
Q 5.515625 40.765625 12.171875 48.375 
Q 18.84375 56 30.609375 56 
" id="BitstreamVeraSans-Roman-6f"/>
     <path d="M 64.40625 67.28125 
L 64.40625 56.890625 
Q 59.421875 61.53125 53.78125 63.8125 
Q 48.140625 66.109375 41.796875 66.109375 
Q 29.296875 66.109375 22.65625 58.46875 
Q 16.015625 50.828125 16.015625 36.375 
Q 16.015625 21.96875 22.65625 14.328125 
Q 29.296875 6.6875 41.796875 6.6875 
Q 48.140625 6.6875 53.78125 8.984375 
Q 59.421875 11.28125 64.40625 15.921875 
L 64.40625 5.609375 
Q 59.234375 2.09375 53.4375 0.328125 
Q 47.65625 -1.421875 41.21875 -1.421875 
Q 24.65625 -1.421875 15.125 8.703125 
Q 5.609375 18.84375 5.609375 36.375 
Q 5.609375 53.953125 15.125 64.078125 
Q 24.65625 74.21875 41.21875 74.21875 
Q 47.75 74.21875 53.53125 72.484375 
Q 59.328125 70.75 64.40625 67.28125 
" id="BitstreamVeraSans-Roman-43"/>
     <path d="M 45.40625 46.390625 
L 45.40625 75.984375 
L 54.390625 75.984375 
L 54.390625 0 
L 45.40625 0 
L 45.40625 8.203125 
Q 42.578125 3.328125 38.25 0.953125 
Q 33.9375 -1.421875 27.875 -1.421875 
Q 17.96875 -1.421875 11.734375 6.484375 
Q 5.515625 14.40625 5.515625 27.296875 
Q 5.515625 40.1875 11.734375 48.09375 
Q 17.96875 56 27.875 56 
Q 33.9375 56 38.25 53.625 
Q 42.578125 51.265625 45.40625 46.390625 
M 14.796875 27.296875 
Q 14.796875 17.390625 18.875 11.75 
Q 22.953125 6.109375 30.078125 6.109375 
Q 37.203125 6.109375 41.296875 11.75 
Q 45.40625 17.390625 45.40625 27.296875 
Q 45.40625 37.203125 41.296875 42.84375 
Q 37.203125 48.484375 30.078125 48.484375 
Q 22.953125 48.484375 18.875 42.84375 
Q 14.796875 37.203125 14.796875 27.296875 
" id="BitstreamVeraSans-Roman-64"/>
     <path d="M 18.3125 70.21875 
L 18.3125 54.6875 
L 36.8125 54.6875 
L 36.8125 47.703125 
L 18.3125 47.703125 
L 18.3125 18.015625 
Q 18.3125 11.328125 20.140625 9.421875 
Q 21.96875 7.515625 27.59375 7.515625 
L 36.8125 7.515625 
L 36.8125 0 
L 27.59375 0 
Q 17.1875 0 13.234375 3.875 
Q 9.28125 7.765625 9.28125 18.015625 
L 9.28125 47.703125 
L 2.6875 47.703125 
L 2.6875 54.6875 
L 9.28125 54.6875 
L 9.28125 70.21875 
z
" id="BitstreamVeraSans-Roman-74"/>
     <path d="M 41.109375 46.296875 
Q 39.59375 47.171875 37.8125 47.578125 
Q 36.03125 48 33.890625 48 
Q 26.265625 48 22.1875 43.046875 
Q 18.109375 38.09375 18.109375 28.8125 
L 18.109375 0 
L 9.078125 0 
L 9.078125 54.6875 
L 18.109375 54.6875 
L 18.109375 46.1875 
Q 20.953125 51.171875 25.484375 53.578125 
Q 30.03125 56 36.53125 56 
Q 37.453125 56 38.578125 55.875 
Q 39.703125 55.765625 41.0625 55.515625 
z
" id="BitstreamVeraSans-Roman-72"/>
     <path d="M 44.28125 53.078125 
L 44.28125 44.578125 
Q 40.484375 46.53125 36.375 47.5 
Q 32.28125 48.484375 27.875 48.484375 
Q 21.1875 48.484375 17.84375 46.4375 
Q 14.5 44.390625 14.5 40.28125 
Q 14.5 37.15625 16.890625 35.375 
Q 19.28125 33.59375 26.515625 31.984375 
L 29.59375 31.296875 
Q 39.15625 29.25 43.1875 25.515625 
Q 47.21875 21.78125 47.21875 15.09375 
Q 47.21875 7.46875 41.1875 3.015625 
Q 35.15625 -1.421875 24.609375 -1.421875 
Q 20.21875 -1.421875 15.453125 -0.5625 
Q 10.6875 0.296875 5.421875 2 
L 5.421875 11.28125 
Q 10.40625 8.6875 15.234375 7.390625 
Q 20.0625 6.109375 24.8125 6.109375 
Q 31.15625 6.109375 34.5625 8.28125 
Q 37.984375 10.453125 37.984375 14.40625 
Q 37.984375 18.0625 35.515625 20.015625 
Q 33.0625 21.96875 24.703125 23.78125 
L 21.578125 24.515625 
Q 13.234375 26.265625 9.515625 29.90625 
Q 5.8125 33.546875 5.8125 39.890625 
Q 5.8125 47.609375 11.28125 51.796875 
Q 16.75 56 26.8125 56 
Q 31.78125 56 36.171875 55.265625 
Q 40.578125 54.546875 44.28125 53.078125 
" id="BitstreamVeraSans-Roman-73"/>
     <path d="M 48.78125 52.59375 
L 48.78125 44.1875 
Q 44.96875 46.296875 41.140625 47.34375 
Q 37.3125 48.390625 33.40625 48.390625 
Q 24.65625 48.390625 19.8125 42.84375 
Q 14.984375 37.3125 14.984375 27.296875 
Q 14.984375 17.28125 19.8125 11.734375 
Q 24.65625 6.203125 33.40625 6.203125 
Q 37.3125 6.203125 41.140625 7.25 
Q 44.96875 8.296875 48.78125 10.40625 
L 48.78125 2.09375 
Q 45.015625 0.34375 40.984375 -0.53125 
Q 36.96875 -1.421875 32.421875 -1.421875 
Q 20.0625 -1.421875 12.78125 6.34375 
Q 5.515625 14.109375 5.515625 27.296875 
Q 5.515625 40.671875 12.859375 48.328125 
Q 20.21875 56 33.015625 56 
Q 37.15625 56 41.109375 55.140625 
Q 45.0625 54.296875 48.78125 52.59375 
" id="BitstreamVeraSans-Roman-63"/>
    </defs>
    <g transform="translate(114.994125 12.304)scale(0.144 -0.144)">
     <use xlink:href="#BitstreamVeraSans-Roman-43"/>
     <use x="69.82421875" xlink:href="#BitstreamVeraSans-Roman-6f"/>
     <use x="131.005859375" xlink:href="#BitstreamVeraSans-Roman-72"/>
     <use x="172.103515625" xlink:href="#BitstreamVeraSans-Roman-72"/>
     <use x="213.185546875" xlink:href="#BitstreamVeraSans-Roman-65"/>
     <use x="274.708984375" xlink:href="#BitstreamVeraSans-Roman-63"/>
     <use x="329.689453125" xlink:href="#BitstreamVeraSans-Roman-74"/>
     <use x="368.8984375" xlink:href="#BitstreamVeraSans-Roman-65"/>
     <use x="430.421875" xlink:href="#BitstreamVeraSans-Roman-64"/>
     <use x="493.8984375" xlink:href="#BitstreamVeraSans-Roman-20"/>
     <use x="525.685546875" xlink:href="#BitstreamVeraSans-Roman-72"/>
     <use x="566.767578125" xlink:href="#BitstreamVeraSans-Roman-65"/>
     <use x="628.291015625" xlink:href="#BitstreamVeraSans-Roman-73"/>
     <use x="680.390625" xlink:href="#BitstreamVeraSans-Roman-75"/>
     <use x="743.76953125" xlink:href="#BitstreamVeraSans-Roman-6c"/>
     <use x="771.552734375" xlink:href="#BitstreamVeraSans-Roman-74"/>
     <use x="810.76171875" xlink:href="#BitstreamVeraSans-Roman-73"/>
    </g>
   </g>
   <g id="legend_1">
    <g id="patch_8">
     <path d="M 196.407 49.9605 
L 303.84 49.9605 
L 303.84 24.504 
L 196.407 24.504 
z
" style="fill:#ffffff;stroke:#000000;stroke-linejoin:miter;"/>
    </g>
    <g id="line2d_34">
     <path d="M 206.487 36.16575 
L 226.647 36.16575 
" style="fill:none;stroke:#008000;stroke-linecap:square;"/>
    </g>
    <g id="line2d_35"/>
    <g id="text_19">
     <!-- Laplace -->
     <defs>
      <path d="M 9.8125 72.90625 
L 19.671875 72.90625 
L 19.671875 8.296875 
L 55.171875 8.296875 
L 55.171875 0 
L 9.8125 0 
z
" id="BitstreamVeraSans-Roman-4c"/>
      <path d="M 18.109375 8.203125 
L 18.109375 -20.796875 
L 9.078125 -20.796875 
L 9.078125 54.6875 
L 18.109375 54.6875 
L 18.109375 46.390625 
Q 20.953125 51.265625 25.265625 53.625 
Q 29.59375 56 35.59375 56 
Q 45.5625 56 51.78125 48.09375 
Q 58.015625 40.1875 58.015625 27.296875 
Q 58.015625 14.40625 51.78125 6.484375 
Q 45.5625 -1.421875 35.59375 -1.421875 
Q 29.59375 -1.421875 25.265625 0.953125 
Q 20.953125 3.328125 18.109375 8.203125 
M 48.6875 27.296875 
Q 48.6875 37.203125 44.609375 42.84375 
Q 40.53125 48.484375 33.40625 48.484375 
Q 26.265625 48.484375 22.1875 42.84375 
Q 18.109375 37.203125 18.109375 27.296875 
Q 18.109375 17.390625 22.1875 11.75 
Q 26.265625 6.109375 33.40625 6.109375 
Q 40.53125 6.109375 44.609375 11.75 
Q 48.6875 17.390625 48.6875 27.296875 
" id="BitstreamVeraSans-Roman-70"/>
     </defs>
     <g transform="translate(242.487 41.20575)scale(0.144 -0.144)">
      <use xlink:href="#BitstreamVeraSans-Roman-4c"/>
      <use x="55.712890625" xlink:href="#BitstreamVeraSans-Roman-61"/>
      <use x="116.9921875" xlink:href="#BitstreamVeraSans-Roman-70"/>
      <use x="180.46875" xlink:href="#BitstreamVeraSans-Roman-6c"/>
      <use x="208.251953125" xlink:href="#BitstreamVeraSans-Roman-61"/>
      <use x="269.53125" xlink:href="#BitstreamVeraSans-Roman-63"/>
      <use x="324.51171875" xlink:href="#BitstreamVeraSans-Roman-65"/>
     </g>
    </g>
   </g>
  </g>
 </g>
 <defs>
  <clipPath id="pfd775b465f">
   <rect height="138.432" width="267.84" x="43.2" y="17.304"/>
  </clipPath>
 </defs>
</svg>
