<svg version="1.1" viewBox="0.0 0.0 800.0 600.0" fill="none" stroke="none" stroke-linecap="square" stroke-miterlimit="10" xmlns:xlink="http://www.w3.org/1999/xlink" xmlns="http://www.w3.org/2000/svg"><clipPath id="p.0"><path d="m0 0l800.0 0l0 600.0l-800.0 0l0 -600.0z" clip-rule="nonzero"/></clipPath><g clip-path="url(#p.0)"><path fill="#000000" fill-opacity="0.0" d="m0 0l800.0 0l0 600.0l-800.0 0z" fill-rule="evenodd"/><path fill="#000000" fill-opacity="0.0" d="m211.0 394.0l330.99213 0" fill-rule="evenodd"/><path stroke="#000000" stroke-width="3.0" stroke-linejoin="round" stroke-linecap="butt" d="m211.0 394.0l312.99213 0" fill-rule="evenodd"/><path fill="#000000" stroke="#000000" stroke-width="3.0" stroke-linecap="butt" d="m523.9921 398.9552l13.614319 -4.9552l-13.614319 -4.9552z" fill-rule="evenodd"/><path fill="#000000" fill-opacity="0.0" d="m213.0 396.0l-2.015747 -294.01575" fill-rule="evenodd"/><path stroke="#000000" stroke-width="3.0" stroke-linejoin="round" stroke-linecap="butt" d="m213.0 396.0l-1.8923492 -276.01617" fill-rule="evenodd"/><path fill="#000000" stroke="#000000" stroke-width="3.0" stroke-linecap="butt" d="m216.06273 119.94986l-5.048416 -13.580002l-4.86174 13.647942z" fill-rule="evenodd"/><path fill="#000000" fill-opacity="0.0" d="m173.0 106.0l37.984253 0l0 30.015747l-37.984253 0z" fill-rule="evenodd"/><path fill="#000000" d="m183.15625 136.63875l-0.1875 -1.53125q0.546875 0.140625 0.9375 0.140625q0.546875 0 0.875 -0.1875q0.328125 -0.171875 0.546875 -0.5q0.15625 -0.25 0.5 -1.21875q0.046875 -0.140625 0.140625 -0.40625l-3.671875 -9.6875l1.765625 0l2.015625 5.59375q0.390625 1.078125 0.703125 2.25q0.28125 -1.125 0.671875 -2.203125l2.078125 -5.640625l1.640625 0l-3.6875 9.828125q-0.59375 1.609375 -0.921875 2.203125q-0.4375 0.8125 -1.0 1.1875q-0.5625 0.375 -1.34375 0.375q-0.484375 0 -1.0625 -0.203125z" fill-rule="nonzero"/><path fill="#000000" fill-opacity="0.0" d="m524.0 396.0l37.984253 0l0 21.007874l-37.984253 0z" fill-rule="evenodd"/><path fill="#000000" d="m533.1406 422.91998l3.53125 -5.03125l-3.265625 -4.640625l2.046875 0l1.484375 2.265625q0.421875 0.640625 0.671875 1.078125q0.40625 -0.59375 0.734375 -1.0625l1.640625 -2.28125l1.953125 0l-3.34375 4.546875l3.59375 5.125l-2.015625 0l-1.984375 -3.0l-0.515625 -0.8125l-2.546875 3.8125l-1.984375 0z" fill-rule="nonzero"/><path fill="#0000ff" d="m345.85117 260.91336l0 0c0.6349182 -3.8181458 -1.9315186 -7.413971 -5.7322693 -8.031479l0 0c-1.8251953 -0.2965393 -3.6967468 0.14743042 -5.202942 1.2342529c-1.5061951 1.0868225 -2.5236511 2.7274628 -2.8285522 4.56102l0 0c-0.6349182 3.8181458 1.9315186 7.413971 5.7322693 8.031494l0 0c3.8007812 0.6175232 7.3966064 -1.9771118 8.031494 -5.795288z" fill-rule="evenodd"/><path stroke="#000000" stroke-width="1.0" stroke-linejoin="round" stroke-linecap="butt" d="m345.85117 260.91336l0 0c0.6349182 -3.8181458 -1.9315186 -7.413971 -5.7322693 -8.031479l0 0c-1.8251953 -0.2965393 -3.6967468 0.14743042 -5.202942 1.2342529c-1.5061951 1.0868225 -2.5236511 2.7274628 -2.8285522 4.56102l0 0c-0.6349182 3.8181458 1.9315186 7.413971 5.7322693 8.031494l0 0c3.8007812 0.6175232 7.3966064 -1.9771118 8.031494 -5.795288z" fill-rule="evenodd"/><path fill="#0000ff" d="m361.85117 276.91336l0 0c0.6349182 -3.8181458 -1.9315186 -7.413971 -5.7322693 -8.031494l0 0c-1.8251953 -0.2965393 -3.6967468 0.14746094 -5.202942 1.2342834c-1.5061951 1.0868225 -2.5236511 2.7274475 -2.8285522 4.5610046l0 0c-0.6349182 3.8181458 1.9315186 7.413971 5.7322693 8.031494l0 0c3.8007812 0.6175232 7.3966064 -1.9771118 8.031494 -5.795288z" fill-rule="evenodd"/><path stroke="#000000" stroke-width="1.0" stroke-linejoin="round" stroke-linecap="butt" d="m361.85117 276.91336l0 0c0.6349182 -3.8181458 -1.9315186 -7.413971 -5.7322693 -8.031494l0 0c-1.8251953 -0.2965393 -3.6967468 0.14746094 -5.202942 1.2342834c-1.5061951 1.0868225 -2.5236511 2.7274475 -2.8285522 4.5610046l0 0c-0.6349182 3.8181458 1.9315186 7.413971 5.7322693 8.031494l0 0c3.8007812 0.6175232 7.3966064 -1.9771118 8.031494 -5.795288z" fill-rule="evenodd"/><path fill="#0000ff" d="m371.85117 255.91338l0 0c0.6349182 -3.818161 -1.9315186 -7.413986 -5.7322693 -8.031494l0 0c-1.8251953 -0.2965393 -3.6967468 0.14743042 -5.202942 1.2342529c-1.5061951 1.0868225 -2.5236511 2.727478 -2.8285522 4.56102l0 0c-0.6349182 3.8181458 1.9315186 7.413971 5.7322693 8.031494l0 0c3.8007812 0.6175232 7.3966064 -1.9771118 8.031494 -5.795273z" fill-rule="evenodd"/><path stroke="#000000" stroke-width="1.0" stroke-linejoin="round" stroke-linecap="butt" d="m371.85117 255.91338l0 0c0.6349182 -3.818161 -1.9315186 -7.413986 -5.7322693 -8.031494l0 0c-1.8251953 -0.2965393 -3.6967468 0.14743042 -5.202942 1.2342529c-1.5061951 1.0868225 -2.5236511 2.727478 -2.8285522 4.56102l0 0c-0.6349182 3.8181458 1.9315186 7.413971 5.7322693 8.031494l0 0c3.8007812 0.6175232 7.3966064 -1.9771118 8.031494 -5.795273z" fill-rule="evenodd"/><path fill="#0000ff" d="m345.85117 292.97638l0 0c0.6349182 -3.8181763 -1.9315186 -7.4140015 -5.7322693 -8.031525l0 0c-1.8251953 -0.2965393 -3.6967468 0.14746094 -5.202942 1.2342834c-1.5061951 1.0868225 -2.5236511 2.727478 -2.8285522 4.5610046l0 0c-0.6349182 3.8181458 1.9315186 7.413971 5.7322693 8.031494l0 0c3.8007812 0.6175232 7.3966064 -1.9771118 8.031494 -5.7952576z" fill-rule="evenodd"/><path stroke="#000000" stroke-width="1.0" stroke-linejoin="round" stroke-linecap="butt" d="m345.85117 292.97638l0 0c0.6349182 -3.8181763 -1.9315186 -7.4140015 -5.7322693 -8.031525l0 0c-1.8251953 -0.2965393 -3.6967468 0.14746094 -5.202942 1.2342834c-1.5061951 1.0868225 -2.5236511 2.727478 -2.8285522 4.5610046l0 0c-0.6349182 3.8181458 1.9315186 7.413971 5.7322693 8.031494l0 0c3.8007812 0.6175232 7.3966064 -1.9771118 8.031494 -5.7952576z" fill-rule="evenodd"/><path fill="#0000ff" d="m383.37872 276.91336l0 0c0.6349182 -3.8181458 -1.9315186 -7.413971 -5.7322693 -8.031494l0 0c-1.8251953 -0.2965393 -3.6967468 0.14746094 -5.202942 1.2342834c-1.5061951 1.0868225 -2.5236511 2.7274475 -2.8285522 4.5610046l0 0c-0.6349182 3.8181458 1.9315186 7.413971 5.7322693 8.031494l0 0c3.8007812 0.6175232 7.3966064 -1.9771118 8.031494 -5.795288z" fill-rule="evenodd"/><path stroke="#000000" stroke-width="1.0" stroke-linejoin="round" stroke-linecap="butt" d="m383.37872 276.91336l0 0c0.6349182 -3.8181458 -1.9315186 -7.413971 -5.7322693 -8.031494l0 0c-1.8251953 -0.2965393 -3.6967468 0.14746094 -5.202942 1.2342834c-1.5061951 1.0868225 -2.5236511 2.7274475 -2.8285522 4.5610046l0 0c-0.6349182 3.8181458 1.9315186 7.413971 5.7322693 8.031494l0 0c3.8007812 0.6175232 7.3966064 -1.9771118 8.031494 -5.795288z" fill-rule="evenodd"/><path fill="#0000ff" d="m371.85117 297.91336l0 0c0.6349182 -3.8181458 -1.9315186 -7.413971 -5.7322693 -8.031494l0 0c-1.8251953 -0.2965393 -3.6967468 0.14746094 -5.202942 1.2342834c-1.5061951 1.0868225 -2.5236511 2.7274475 -2.8285522 4.5610046l0 0c-0.6349182 3.8181458 1.9315186 7.413971 5.7322693 8.031494l0 0c3.8007812 0.6175232 7.3966064 -1.9771118 8.031494 -5.795288z" fill-rule="evenodd"/><path stroke="#000000" stroke-width="1.0" stroke-linejoin="round" stroke-linecap="butt" d="m371.85117 297.91336l0 0c0.6349182 -3.8181458 -1.9315186 -7.413971 -5.7322693 -8.031494l0 0c-1.8251953 -0.2965393 -3.6967468 0.14746094 -5.202942 1.2342834c-1.5061951 1.0868225 -2.5236511 2.7274475 -2.8285522 4.5610046l0 0c-0.6349182 3.8181458 1.9315186 7.413971 5.7322693 8.031494l0 0c3.8007812 0.6175232 7.3966064 -1.9771118 8.031494 -5.795288z" fill-rule="evenodd"/><path fill="#0000ff" d="m399.4417 239.85039l0 0c0.6349182 -3.818161 -1.9315186 -7.413986 -5.7322693 -8.031509l0 0c-1.8251953 -0.2965393 -3.6967468 0.14744568 -5.202942 1.2342682c-1.5061951 1.0868225 -2.5236511 2.727478 -2.8285522 4.56102l0 0c-0.6349182 3.8181458 1.9315186 7.413971 5.7322693 8.031494l0 0c3.8007812 0.61750793 7.3966064 -1.9771271 8.031494 -5.795273z" fill-rule="evenodd"/><path stroke="#000000" stroke-width="1.0" stroke-linejoin="round" stroke-linecap="butt" d="m399.4417 239.85039l0 0c0.6349182 -3.818161 -1.9315186 -7.413986 -5.7322693 -8.031509l0 0c-1.8251953 -0.2965393 -3.6967468 0.14744568 -5.202942 1.2342682c-1.5061951 1.0868225 -2.5236511 2.727478 -2.8285522 4.56102l0 0c-0.6349182 3.8181458 1.9315186 7.413971 5.7322693 8.031494l0 0c3.8007812 0.61750793 7.3966064 -1.9771271 8.031494 -5.795273z" fill-rule="evenodd"/><path fill="#0000ff" d="m404.90628 260.91336l0 0c0.6349182 -3.8181458 -1.9315186 -7.413971 -5.7322693 -8.031479l0 0c-1.8251953 -0.2965393 -3.6967468 0.14743042 -5.202942 1.2342529c-1.5061951 1.0868225 -2.5236511 2.7274628 -2.8285522 4.56102l0 0c-0.6349182 3.8181458 1.9315186 7.413971 5.7322693 8.031494l0 0c3.8007812 0.6175232 7.3966064 -1.9771118 8.031494 -5.795288z" fill-rule="evenodd"/><path stroke="#000000" stroke-width="1.0" stroke-linejoin="round" stroke-linecap="butt" d="m404.90628 260.91336l0 0c0.6349182 -3.8181458 -1.9315186 -7.413971 -5.7322693 -8.031479l0 0c-1.8251953 -0.2965393 -3.6967468 0.14743042 -5.202942 1.2342529c-1.5061951 1.0868225 -2.5236511 2.7274628 -2.8285522 4.56102l0 0c-0.6349182 3.8181458 1.9315186 7.413971 5.7322693 8.031494l0 0c3.8007812 0.6175232 7.3966064 -1.9771118 8.031494 -5.795288z" fill-rule="evenodd"/><path fill="#0000ff" d="m397.85117 297.91336l0 0c0.6349182 -3.8181458 -1.9315186 -7.413971 -5.7322693 -8.031494l0 0c-1.8251953 -0.2965393 -3.6967468 0.14746094 -5.202942 1.2342834c-1.5061951 1.0868225 -2.5236511 2.7274475 -2.8285522 4.5610046l0 0c-0.6349182 3.8181458 1.9315186 7.413971 5.7322693 8.031494l0 0c3.8007812 0.6175232 7.3966064 -1.9771118 8.031494 -5.795288z" fill-rule="evenodd"/><path stroke="#000000" stroke-width="1.0" stroke-linejoin="round" stroke-linecap="butt" d="m397.85117 297.91336l0 0c0.6349182 -3.8181458 -1.9315186 -7.413971 -5.7322693 -8.031494l0 0c-1.8251953 -0.2965393 -3.6967468 0.14746094 -5.202942 1.2342834c-1.5061951 1.0868225 -2.5236511 2.7274475 -2.8285522 4.5610046l0 0c-0.6349182 3.8181458 1.9315186 7.413971 5.7322693 8.031494l0 0c3.8007812 0.6175232 7.3966064 -1.9771118 8.031494 -5.795288z" fill-rule="evenodd"/><path fill="#0000ff" d="m320.85117 276.91336l0 0c0.6349182 -3.8181458 -1.9315186 -7.413971 -5.7322693 -8.031494l0 0c-1.8251953 -0.2965393 -3.6967468 0.14746094 -5.202942 1.2342834c-1.5061951 1.0868225 -2.5236511 2.7274475 -2.8285522 4.5610046l0 0c-0.6349182 3.8181458 1.9315186 7.413971 5.7322693 8.031494l0 0c3.8007812 0.6175232 7.3966064 -1.9771118 8.031494 -5.795288z" fill-rule="evenodd"/><path stroke="#000000" stroke-width="1.0" stroke-linejoin="round" stroke-linecap="butt" d="m320.85117 276.91336l0 0c0.6349182 -3.8181458 -1.9315186 -7.413971 -5.7322693 -8.031494l0 0c-1.8251953 -0.2965393 -3.6967468 0.14746094 -5.202942 1.2342834c-1.5061951 1.0868225 -2.5236511 2.7274475 -2.8285522 4.5610046l0 0c-0.6349182 3.8181458 1.9315186 7.413971 5.7322693 8.031494l0 0c3.8007812 0.6175232 7.3966064 -1.9771118 8.031494 -5.795288z" fill-rule="evenodd"/><path fill="#0000ff" d="m319.85117 301.1181l0 0c0.6349182 -3.8181763 -1.9315186 -7.413971 -5.7322693 -8.031494l0 0c-1.8251953 -0.2965393 -3.6967468 0.14743042 -5.202942 1.2342529c-1.5061951 1.0868225 -2.5236511 2.727478 -2.8285522 4.5610046l0 0c-0.6349182 3.8181763 1.9315186 7.4140015 5.7322693 8.031494l0 0c3.8007812 0.6175232 7.3966064 -1.9771118 8.031494 -5.7952576z" fill-rule="evenodd"/><path stroke="#000000" stroke-width="1.0" stroke-linejoin="round" stroke-linecap="butt" d="m319.85117 301.1181l0 0c0.6349182 -3.8181763 -1.9315186 -7.413971 -5.7322693 -8.031494l0 0c-1.8251953 -0.2965393 -3.6967468 0.14743042 -5.202942 1.2342529c-1.5061951 1.0868225 -2.5236511 2.727478 -2.8285522 4.5610046l0 0c-0.6349182 3.8181763 1.9315186 7.4140015 5.7322693 8.031494l0 0c3.8007812 0.6175232 7.3966064 -1.9771118 8.031494 -5.7952576z" fill-rule="evenodd"/><path fill="#0000ff" d="m515.8512 158.91338l0 0c0.6348877 -3.818161 -1.9315186 -7.413986 -5.7323 -8.031494l0 0c-1.8251953 -0.2965393 -3.6967468 0.14743042 -5.202942 1.2342529c-1.5061951 1.0868225 -2.5236511 2.727478 -2.8285522 4.56102l0 0c-0.6349182 3.818161 1.9315186 7.413986 5.7322693 8.031494l0 0c3.8007812 0.6175232 7.396576 -1.9771118 8.031525 -5.795273z" fill-rule="evenodd"/><path stroke="#000000" stroke-width="1.0" stroke-linejoin="round" stroke-linecap="butt" d="m515.8512 158.91338l0 0c0.6348877 -3.818161 -1.9315186 -7.413986 -5.7323 -8.031494l0 0c-1.8251953 -0.2965393 -3.6967468 0.14743042 -5.202942 1.2342529c-1.5061951 1.0868225 -2.5236511 2.727478 -2.8285522 4.56102l0 0c-0.6349182 3.818161 1.9315186 7.413986 5.7322693 8.031494l0 0c3.8007812 0.6175232 7.396576 -1.9771118 8.031525 -5.795273z" fill-rule="evenodd"/><path fill="#0000ff" d="m484.85117 158.91338l0 0c0.6349182 -3.818161 -1.9315186 -7.413986 -5.7322693 -8.031494l0 0c-1.8251953 -0.2965393 -3.6967468 0.14743042 -5.202942 1.2342529c-1.5061951 1.0868225 -2.5236511 2.727478 -2.8285522 4.56102l0 0c-0.6349182 3.818161 1.9315186 7.413986 5.7322693 8.031494l0 0c3.8007812 0.6175232 7.3966064 -1.9771118 8.031494 -5.795273z" fill-rule="evenodd"/><path stroke="#000000" stroke-width="1.0" stroke-linejoin="round" stroke-linecap="butt" d="m484.85117 158.91338l0 0c0.6349182 -3.818161 -1.9315186 -7.413986 -5.7322693 -8.031494l0 0c-1.8251953 -0.2965393 -3.6967468 0.14743042 -5.202942 1.2342529c-1.5061951 1.0868225 -2.5236511 2.727478 -2.8285522 4.56102l0 0c-0.6349182 3.818161 1.9315186 7.413986 5.7322693 8.031494l0 0c3.8007812 0.6175232 7.3966064 -1.9771118 8.031494 -5.795273z" fill-rule="evenodd"/><path fill="#0000ff" d="m509.85117 185.91338l0 0c0.6349182 -3.818161 -1.9315186 -7.413986 -5.7322693 -8.031494l0 0c-1.8251953 -0.2965393 -3.6967468 0.14743042 -5.202942 1.2342529c-1.5061951 1.0868225 -2.5236511 2.727478 -2.8285522 4.56102l0 0c-0.6349182 3.818161 1.9315186 7.413986 5.7322693 8.031494l0 0c3.8007812 0.6175232 7.3966064 -1.9771118 8.031494 -5.795273z" fill-rule="evenodd"/><path stroke="#000000" stroke-width="1.0" stroke-linejoin="round" stroke-linecap="butt" d="m509.85117 185.91338l0 0c0.6349182 -3.818161 -1.9315186 -7.413986 -5.7322693 -8.031494l0 0c-1.8251953 -0.2965393 -3.6967468 0.14743042 -5.202942 1.2342529c-1.5061951 1.0868225 -2.5236511 2.727478 -2.8285522 4.56102l0 0c-0.6349182 3.818161 1.9315186 7.413986 5.7322693 8.031494l0 0c3.8007812 0.6175232 7.3966064 -1.9771118 8.031494 -5.795273z" fill-rule="evenodd"/><path fill="#0000ff" d="m484.85117 180.91338l0 0c0.6349182 -3.818161 -1.9315186 -7.413986 -5.7322693 -8.031494l0 0c-1.8251953 -0.2965393 -3.6967468 0.14743042 -5.202942 1.2342529c-1.5061951 1.0868225 -2.5236511 2.727478 -2.8285522 4.56102l0 0c-0.6349182 3.818161 1.9315186 7.413986 5.7322693 8.031494l0 0c3.8007812 0.6175232 7.3966064 -1.9771118 8.031494 -5.795273z" fill-rule="evenodd"/><path stroke="#000000" stroke-width="1.0" stroke-linejoin="round" stroke-linecap="butt" d="m484.85117 180.91338l0 0c0.6349182 -3.818161 -1.9315186 -7.413986 -5.7322693 -8.031494l0 0c-1.8251953 -0.2965393 -3.6967468 0.14743042 -5.202942 1.2342529c-1.5061951 1.0868225 -2.5236511 2.727478 -2.8285522 4.56102l0 0c-0.6349182 3.818161 1.9315186 7.413986 5.7322693 8.031494l0 0c3.8007812 0.6175232 7.3966064 -1.9771118 8.031494 -5.795273z" fill-rule="evenodd"/><path fill="#0000ff" d="m500.91415 145.16534l0 0c0.6349182 -3.818161 -1.9315186 -7.413986 -5.7322693 -8.031494l0 0c-1.8251953 -0.2965393 -3.6967468 0.14743042 -5.202942 1.2342529c-1.5061951 1.0868225 -2.5236511 2.727478 -2.8285522 4.56102l0 0c-0.6349182 3.818161 1.9315186 7.413986 5.7322693 8.031494l0 0c3.8007812 0.6175232 7.3966064 -1.9771118 8.031494 -5.795273z" fill-rule="evenodd"/><path stroke="#000000" stroke-width="1.0" stroke-linejoin="round" stroke-linecap="butt" d="m500.91415 145.16534l0 0c0.6349182 -3.818161 -1.9315186 -7.413986 -5.7322693 -8.031494l0 0c-1.8251953 -0.2965393 -3.6967468 0.14743042 -5.202942 1.2342529c-1.5061951 1.0868225 -2.5236511 2.727478 -2.8285522 4.56102l0 0c-0.6349182 3.818161 1.9315186 7.413986 5.7322693 8.031494l0 0c3.8007812 0.6175232 7.3966064 -1.9771118 8.031494 -5.795273z" fill-rule="evenodd"/><path fill="#0000ff" d="m534.8512 180.91338l0 0c0.6348877 -3.818161 -1.9315186 -7.413986 -5.7323 -8.031494l0 0c-1.8251953 -0.2965393 -3.6967773 0.14743042 -5.202942 1.2342529c-1.5062256 1.0868225 -2.5236816 2.727478 -2.8285522 4.56102l0 0c-0.63494873 3.818161 1.9315186 7.413986 5.7323 8.031494l0 0c3.8007202 0.6175232 7.3965454 -1.9771118 8.031494 -5.795273z" fill-rule="evenodd"/><path stroke="#000000" stroke-width="1.0" stroke-linejoin="round" stroke-linecap="butt" d="m534.8512 180.91338l0 0c0.6348877 -3.818161 -1.9315186 -7.413986 -5.7323 -8.031494l0 0c-1.8251953 -0.2965393 -3.6967773 0.14743042 -5.202942 1.2342529c-1.5062256 1.0868225 -2.5236816 2.727478 -2.8285522 4.56102l0 0c-0.63494873 3.818161 1.9315186 7.413986 5.7323 8.031494l0 0c3.8007202 0.6175232 7.3965454 -1.9771118 8.031494 -5.795273z" fill-rule="evenodd"/><path fill="#ff0000" d="m468.78818 347.91336l0 0c0.6349182 -3.8181458 -1.9315186 -7.413971 -5.7322693 -8.031494l0 0c-1.8251953 -0.2965393 -3.6967468 0.14746094 -5.202942 1.2342834c-1.5061951 1.0868225 -2.5236816 2.7274475 -2.8285522 4.5610046l0 0c-0.6349182 3.8181458 1.9315186 7.413971 5.7322693 8.031494l0 0c3.8007507 0.6175232 7.396576 -1.9771118 8.031494 -5.795288z" fill-rule="evenodd"/><path stroke="#000000" stroke-width="1.0" stroke-linejoin="round" stroke-linecap="butt" d="m468.78818 347.91336l0 0c0.6349182 -3.8181458 -1.9315186 -7.413971 -5.7322693 -8.031494l0 0c-1.8251953 -0.2965393 -3.6967468 0.14746094 -5.202942 1.2342834c-1.5061951 1.0868225 -2.5236816 2.7274475 -2.8285522 4.5610046l0 0c-0.6349182 3.8181458 1.9315186 7.413971 5.7322693 8.031494l0 0c3.8007507 0.6175232 7.396576 -1.9771118 8.031494 -5.795288z" fill-rule="evenodd"/><path fill="#ff0000" d="m263.85117 164.85039l0 0c0.6349182 -3.818161 -1.9315186 -7.413986 -5.7322693 -8.031509l0 0c-1.8251953 -0.2965393 -3.6967468 0.14744568 -5.202942 1.2342682c-1.5062103 1.0868225 -2.5236664 2.727478 -2.8285675 4.56102l0 0c-0.63490295 3.8181458 1.9315338 7.413971 5.7322845 8.031494l0 0c3.8007812 0.61750793 7.3966064 -1.9771271 8.031494 -5.795273z" fill-rule="evenodd"/><path stroke="#000000" stroke-width="1.0" stroke-linejoin="round" stroke-linecap="butt" d="m263.85117 164.85039l0 0c0.6349182 -3.818161 -1.9315186 -7.413986 -5.7322693 -8.031509l0 0c-1.8251953 -0.2965393 -3.6967468 0.14744568 -5.202942 1.2342682c-1.5062103 1.0868225 -2.5236664 2.727478 -2.8285675 4.56102l0 0c-0.63490295 3.8181458 1.9315338 7.413971 5.7322845 8.031494l0 0c3.8007812 0.61750793 7.3966064 -1.9771271 8.031494 -5.795273z" fill-rule="evenodd"/><path fill="#000000" fill-opacity="0.0" d="m456.0 166.0l0 0c0 -24.300522 21.039093 -44.0 46.992126 -44.0l0 0c25.953064 0 46.992126 19.699478 46.992126 44.0l0 0c0 24.300522 -21.039062 44.0 -46.992126 44.0l0 0c-25.953033 0 -46.992126 -19.699478 -46.992126 -44.0z" fill-rule="evenodd"/><path stroke="#000000" stroke-width="1.0" stroke-linejoin="round" stroke-linecap="butt" d="m456.0 166.0l0 0c0 -24.300522 21.039093 -44.0 46.992126 -44.0l0 0c25.953064 0 46.992126 19.699478 46.992126 44.0l0 0c0 24.300522 -21.039062 44.0 -46.992126 44.0l0 0c-25.953033 0 -46.992126 -19.699478 -46.992126 -44.0z" fill-rule="evenodd"/><path fill="#000000" fill-opacity="0.0" d="m281.0 277.50394l0 0c0 -31.206268 33.582184 -56.503937 75.00787 -56.503937l0 0c41.42572 0 75.00787 25.297668 75.00787 56.503937l0 0c0 31.206268 -33.582153 56.503937 -75.00787 56.503937l0 0c-41.42569 0 -75.00787 -25.297668 -75.00787 -56.503937z" fill-rule="evenodd"/><path stroke="#000000" stroke-width="1.0" stroke-linejoin="round" stroke-linecap="butt" d="m281.0 277.50394l0 0c0 -31.206268 33.582184 -56.503937 75.00787 -56.503937l0 0c41.42572 0 75.00787 25.297668 75.00787 56.503937l0 0c0 31.206268 -33.582153 56.503937 -75.00787 56.503937l0 0c-41.42569 0 -75.00787 -25.297668 -75.00787 -56.503937z" fill-rule="evenodd"/><path fill="#000000" fill-opacity="0.0" d="m248.93701 221.0l49.763763 0l0 21.007874l-49.763763 0z" fill-rule="evenodd"/><path fill="#000000" d="m268.90576 243.2325l1.765625 0.453125q-0.5625 2.171875 -2.0 3.328125q-1.4375 1.140625 -3.53125 1.140625q-2.15625 0 -3.515625 -0.875q-1.34375 -0.890625 -2.0625 -2.546875q-0.703125 -1.671875 -0.703125 -3.59375q0 -2.078125 0.796875 -3.625q0.796875 -1.5625 2.265625 -2.359375q1.484375 -0.8125 3.25 -0.8125q2.0 0 3.359375 1.015625q1.375 1.015625 1.90625 2.875l-1.734375 0.40625q-0.46875 -1.453125 -1.359375 -2.109375q-0.875 -0.671875 -2.203125 -0.671875q-1.546875 0 -2.578125 0.734375q-1.03125 0.734375 -1.453125 1.984375q-0.421875 1.234375 -0.421875 2.5625q0 1.703125 0.5 2.96875q0.5 1.265625 1.546875 1.90625q1.046875 0.625 2.265625 0.625q1.484375 0 2.515625 -0.859375q1.03125 -0.859375 1.390625 -2.546875z" fill-rule="nonzero"/><path fill="#000000" d="m276.05057 254.92l-1.09375 0l0 -6.96875q-0.40625 0.375 -1.046875 0.75q-0.640625 0.375 -1.140625 0.578125l0 -1.0625q0.90625 -0.4375 1.59375 -1.046875q0.6875 -0.609375 0.96875 -1.1875l0.71875 0l0 8.9375z" fill-rule="nonzero"/><path fill="#000000" fill-opacity="0.0" d="m514.9921 91.98425l56.0 0l0 30.015747l-56.0 0z" fill-rule="evenodd"/><path fill="#000000" d="m534.9609 114.21675l1.765625 0.453125q-0.5625 2.171875 -2.0 3.328125q-1.4375 1.140625 -3.53125 1.140625q-2.15625 0 -3.515625 -0.875q-1.34375 -0.890625 -2.0625 -2.546875q-0.703125 -1.671875 -0.703125 -3.59375q0 -2.078125 0.796875 -3.625q0.796875 -1.5625 2.265625 -2.359375q1.484375 -0.8125 3.25 -0.8125q2.0 0 3.359375 1.015625q1.375 1.015625 1.90625 2.875l-1.734375 0.40625q-0.46875 -1.453125 -1.359375 -2.109375q-0.875 -0.671875 -2.203125 -0.671875q-1.546875 0 -2.578125 0.734375q-1.03125 0.734375 -1.453125 1.984375q-0.421875 1.234375 -0.421875 2.5625q0 1.703125 0.5 2.96875q0.5 1.265625 1.546875 1.90625q1.046875 0.625 2.265625 0.625q1.484375 0 2.515625 -0.859375q1.03125 -0.859375 1.390625 -2.546875z" fill-rule="nonzero"/><path fill="#000000" d="m543.7307 124.857376l0 1.046875l-5.890625 0q-0.015625 -0.390625 0.125 -0.765625q0.234375 -0.59375 0.71875 -1.171875q0.5 -0.59375 1.4375 -1.359375q1.453125 -1.1875 1.953125 -1.875q0.515625 -0.703125 0.515625 -1.3125q0 -0.65625 -0.46875 -1.09375q-0.453125 -0.453125 -1.203125 -0.453125q-0.796875 0 -1.265625 0.46875q-0.46875 0.46875 -0.484375 1.3125l-1.125 -0.109375q0.125 -1.265625 0.875 -1.921875q0.75 -0.65625 2.015625 -0.65625q1.28125 0 2.03125 0.71875q0.75 0.703125 0.75 1.75q0 0.53125 -0.21875 1.046875q-0.21875 0.515625 -0.734375 1.09375q-0.5 0.5625 -1.671875 1.5625q-0.984375 0.828125 -1.265625 1.125q-0.28125 0.296875 -0.46875 0.59375l4.375 0z" fill-rule="nonzero"/><path fill="#000000" fill-opacity="0.0" d="m256.0 115.0l25.007874 0l0 30.015747l-25.007874 0z" fill-rule="evenodd"/><path fill="#000000" d="m265.90625 135.42q0 -3.328125 1.78125 -5.203125q1.78125 -1.890625 4.609375 -1.890625q1.84375 0 3.328125 0.890625q1.484375 0.875 2.265625 2.46875q0.78125 1.578125 0.78125 3.578125q0 2.03125 -0.828125 3.640625q-0.8125 1.59375 -2.3125 2.421875q-1.5 0.828125 -3.25 0.828125q-1.875 0 -3.359375 -0.90625q-1.484375 -0.921875 -2.25 -2.5q-0.765625 -1.578125 -0.765625 -3.328125zm1.8125 0.015625q0 2.421875 1.296875 3.8125q1.296875 1.390625 3.265625 1.390625q2.0 0 3.28125 -1.40625q1.28125 -1.40625 1.28125 -3.984375q0 -1.625 -0.546875 -2.84375q-0.546875 -1.21875 -1.609375 -1.875q-1.0625 -0.671875 -2.375 -0.671875q-1.890625 0 -3.25 1.296875q-1.34375 1.28125 -1.34375 4.28125z" fill-rule="nonzero"/><path fill="#000000" d="m269.64062 170.92l-1.09375 0l0 -6.96875q-0.40625 0.375 -1.046875 0.75q-0.640625 0.375 -1.140625 0.578125l0 -1.0625q0.90625 -0.4375 1.59375 -1.046875q0.6875 -0.609375 0.96875 -1.1875l0.71875 0l0 8.9375z" fill-rule="nonzero"/><path fill="#000000" fill-opacity="0.0" d="m462.0 309.0l32.944885 0l0 37.007874l-32.944885 0z" fill-rule="evenodd"/><path fill="#000000" d="m471.90625 329.41998q0 -3.328125 1.78125 -5.203125q1.78125 -1.890625 4.609375 -1.890625q1.84375 0 3.328125 0.890625q1.484375 0.875 2.265625 2.46875q0.78125 1.578125 0.78125 3.578125q0 2.03125 -0.828125 3.640625q-0.8125 1.59375 -2.3125 2.421875q-1.5 0.828125 -3.25 0.828125q-1.875 0 -3.359375 -0.90625q-1.484375 -0.921875 -2.25 -2.5q-0.765625 -1.578125 -0.765625 -3.328125zm1.8125 0.015625q0 2.421875 1.296875 3.8125q1.296875 1.390625 3.265625 1.390625q2.0 0 3.28125 -1.40625q1.28125 -1.40625 1.28125 -3.984375q0 -1.625 -0.546875 -2.84375q-0.546875 -1.21875 -1.609375 -1.875q-1.0625 -0.671875 -2.375 -0.671875q-1.890625 0 -3.25 1.296875q-1.34375 1.28125 -1.34375 4.28125z" fill-rule="nonzero"/><path fill="#000000" d="m477.26562 363.8731l0 1.046875l-5.890625 0q-0.015625 -0.390625 0.125 -0.765625q0.234375 -0.59375 0.71875 -1.171875q0.5 -0.59375 1.4375 -1.359375q1.453125 -1.1875 1.953125 -1.875q0.515625 -0.703125 0.515625 -1.3125q0 -0.65625 -0.46875 -1.09375q-0.453125 -0.453125 -1.203125 -0.453125q-0.796875 0 -1.265625 0.46875q-0.46875 0.46875 -0.484375 1.3125l-1.125 -0.109375q0.125 -1.265625 0.875 -1.921875q0.75 -0.65625 2.015625 -0.65625q1.28125 0 2.03125 0.71875q0.75 0.703125 0.75 1.75q0 0.53125 -0.21875 1.046875q-0.21875 0.515625 -0.734375 1.09375q-0.5 0.5625 -1.671875 1.5625q-0.984375 0.828125 -1.265625 1.125q-0.28125 0.296875 -0.46875 0.59375l4.375 0z" fill-rule="nonzero"/></g></svg>